<?xml version="1.0" standalone="no"?>
<!DOCTYPE svg PUBLIC "-//W3C//DTD SVG 20010904//EN"
 "http://www.w3.org/TR/2001/REC-SVG-20010904/DTD/svg10.dtd">
<svg version="1.0" xmlns="http://www.w3.org/2000/svg"
 width="920.000000pt" height="512.000000pt" viewBox="0 0 920.000000 512.000000"
 preserveAspectRatio="xMidYMid meet">

<g transform="translate(0.000000,512.000000) scale(0.100000,-0.100000)"
fill="#000000" stroke="none">
<path d="M3422 5109 c-202 -34 -384 -177 -472 -372 -57 -127 -54 -23 -57
-1914 l-4 -1753 -147 0 c-224 0 -298 -12 -401 -61 -217 -105 -334 -336 -290
-575 37 -207 221 -388 429 -424 46 -8 538 -10 1685 -8 1547 3 1622 4 1675 22
184 62 317 173 396 331 74 150 68 -54 74 2250 5 1953 6 2072 23 2109 51 114
164 189 285 190 101 0 166 -26 233 -93 67 -68 94 -133 93 -232 0 -127 -82
-244 -204 -290 -27 -10 -63 -19 -78 -19 -56 0 -103 -20 -122 -53 -25 -41 -25
-73 0 -114 24 -40 66 -52 145 -43 83 11 112 19 176 51 169 84 278 244 295 431
23 266 -169 520 -430 567 -74 14 -3224 13 -3304 0z m2733 -284 c-24 -46 -46
-99 -50 -117 -5 -18 -11 -967 -14 -2108 l-6 -2075 -32 -66 c-21 -42 -53 -85
-92 -123 -104 -98 -212 -133 -385 -122 -116 7 -164 26 -231 87 -65 60 -97 127
-103 214 -10 173 111 313 291 336 59 7 77 14 101 38 41 41 40 102 -4 145 l-30
31 -1245 3 -1245 2 2 1758 3 1757 23 58 c48 117 187 232 312 256 25 5 653 9
1396 10 l1351 1 -42 -85z m-1060 -4038 c-50 -91 -68 -173 -62 -282 5 -97 30
-184 72 -247 14 -20 25 -40 25 -43 0 -3 -582 -5 -1294 -5 -1285 0 -1294 0
-1362 21 -56 17 -77 31 -124 78 -68 68 -95 133 -94 232 0 126 82 243 201 289
46 18 101 19 1360 20 l1313 0 -35 -63z"/>
<path d="M3494 4256 c-41 -18 -64 -52 -64 -96 0 -45 23 -78 66 -96 49 -21 879
-21 928 0 43 18 66 51 66 96 0 45 -23 78 -66 96 -48 20 -884 20 -930 0z"/>
<path d="M3503 3619 c-100 -29 -96 -170 5 -199 51 -14 2133 -14 2184 0 104 29
104 171 0 200 -48 13 -2143 12 -2189 -1z"/>
<path d="M3503 2979 c-100 -29 -96 -170 5 -199 51 -14 2133 -14 2184 0 104 29
104 171 0 200 -48 13 -2143 12 -2189 -1z"/>
<path d="M3503 2339 c-100 -29 -96 -170 5 -199 51 -14 2133 -14 2184 0 104 29
104 171 0 200 -48 13 -2143 12 -2189 -1z"/>
<path d="M3503 1699 c-100 -29 -96 -170 5 -199 51 -14 2133 -14 2184 0 104 29
104 171 0 200 -48 13 -2143 12 -2189 -1z"/>
</g>
</svg>
